# xmcd
#
# Track frame offsets:
#	150
#	14229
#	29398
#	45287
#	63709
#	81428
#	102517
#	118933
#	142983
#	160009
#	175351
#
# Disc length: 2505 seconds
#
# Revision: 1
# Processed by: cddbd v1.5.2PL0 Copyright (c) Steve Scherf et al.
# Submitted via: audiograbber 1.83.01
#
DISCID=9909c70b
DTITLE=Jenny Talia - Without Adult Supervision
DYEAR=2009
DGENRE=Country
TTITLE0=Cameltoe
TTITLE1=Hey Mum
TTITLE2=David Beckham
TTITLE3=Supa-Face 2000
TTITLE4=No More Bush
TTITLE5=Wax Son (Wax Off)
TTITLE6=Horses Hoof
TTITLE7=Fuck For A Living
TTITLE8=Boys Think With Their Dicks
TTITLE9=Shitty Day
TTITLE10=They Beat Me
EXTD=Adult Content
EXTT0=
EXTT1=
EXTT2=
EXTT3=
EXTT4=
EXTT5=
EXTT6=
EXTT7=
EXTT8=
EXTT9=
EXTT10=
PLAYORDER=
